<?xml version="1.0" encoding="utf-8"?>
<svg version="1.1" xmlns:xlink="http://www.w3.org/1999/xlink" width="44px" height="44px" xmlns="http://www.w3.org/2000/svg">
  <g transform="matrix(1 0 0 1 -693 -7624 )">
    <path d="M 43.90625 34.09375  C 43.96875 34.23958333333333  44 34.45833333333333  44 34.75  C 44 35.3125  43.895833333333336 36.046875  43.6875 36.953125  C 43.47916666666667 37.859375  43.26041666666667 38.572916666666664  43.03125 39.09375  C 42.59375 40.135416666666664  41.32291666666667 41.239583333333336  39.21875 42.40625  C 37.26041666666667 43.46875  35.32291666666667 44  33.40625 44  C 32.84375 44  32.29166666666667 43.963541666666664  31.75 43.890625  C 31.208333333333336 43.817708333333336  30.609375000000007 43.6875  29.953125 43.5  C 29.296875000000004 43.3125  28.80729166666667 43.161458333333336  28.484375 43.046875  C 28.161458333333336 42.932291666666664  27.583333333333336 42.71875  26.75 42.40625  C 25.91666666666667 42.09375  25.406250000000004 41.90625  25.21875 41.84375  C 23.177083333333336 41.114583333333336  21.354166666666668 40.25  19.75 39.25  C 17.104166666666668 37.604166666666664  14.354166666666666 35.354166666666664  11.5 32.5  C 8.645833333333334 29.645833333333325  6.395833333333334 26.895833333333336  4.75 24.25  C 3.7499999999999996 22.645833333333332  2.885416666666667 20.822916666666664  2.15625 18.78125  C 2.09375 18.593749999999996  1.9062500000000002 18.08333333333333  1.59375 17.25  C 1.28125 16.416666666666664  1.0677083333333335 15.838541666666663  0.9531250000000001 15.515625000000002  C 0.8385416666666667 15.19270833333333  0.6875 14.703124999999998  0.5 14.046874999999998  C 0.3125 13.390624999999995  0.18229166666666669 12.791666666666664  0.109375 12.250000000000002  C 0.03645833333333333 11.708333333333329  0 11.15625  0 10.593749999999998  C 0 8.67708333333333  0.53125 6.7395833333333295  1.59375 4.781249999999999  C 2.760416666666667 2.6770833333333264  3.864583333333333 1.4062500000000009  4.90625 0.9687499999999982  C 5.427083333333334 0.7395833333333299  6.140625 0.5208333333333286  7.046875 0.3124999999999991  C 7.953125 0.10416666666666474  8.6875 0  9.25 0  C 9.541666666666668 0  9.760416666666668 0.03125000000000089  9.90625 0.09374999999999778  C 10.28125 0.21875000000000133  10.833333333333334 1.010416666666666  11.562499999999998 2.4687500000000018  C 11.791666666666668 2.864583333333327  12.104166666666668 3.427083333333328  12.500000000000002 4.156250000000001  C 12.895833333333334 4.885416666666664  13.260416666666668 5.546875000000002  13.59375 6.140624999999998  C 13.927083333333334 6.734375000000001  14.25 7.291666666666664  14.562500000000002 7.812500000000002  C 14.625 7.895833333333329  14.807291666666668 8.156250000000002  15.109375 8.59375  C 15.411458333333336 9.031249999999998  15.63541666666667 9.401041666666664  15.78125 9.703125000000002  C 15.927083333333334 10.005208333333329  16 10.302083333333329  16 10.593749999999998  C 16 11.010416666666663  15.703125 11.53125  15.109375 12.156249999999998  C 14.515625 12.781250000000002  13.869791666666668 13.354166666666664  13.171875 13.874999999999998  C 12.473958333333334 14.395833333333327  11.828125 14.947916666666666  11.234375 15.531250000000002  C 10.640625 16.114583333333332  10.34375 16.593749999999996  10.34375 16.96875  C 10.34375 17.15625  10.395833333333334 17.390625  10.5 17.671875  C 10.604166666666668 17.953125000000004  10.692708333333334 18.166666666666664  10.765625 18.312499999999996  C 10.838541666666668 18.45833333333333  10.984375 18.708333333333332  11.203125 19.0625  C 11.421875 19.416666666666668  11.541666666666668 19.614583333333336  11.562499999999998 19.65625  C 13.145833333333334 22.51041666666666  14.958333333333334 24.95833333333333  17 27  C 19.041666666666668 29.04166666666666  21.489583333333336 30.854166666666664  24.34375 32.4375  C 24.385416666666664 32.45833333333333  24.583333333333332 32.578125  24.9375 32.796875  C 25.291666666666668 33.015625  25.54166666666667 33.16145833333333  25.687500000000004 33.234375  C 25.833333333333336 33.307291666666664  26.046874999999996 33.39583333333333  26.328125 33.5  C 26.609375 33.604166666666664  26.84375 33.65625  27.03125 33.65625  C 27.406250000000004 33.65625  27.885416666666668 33.359375  28.46875 32.765625  C 29.052083333333332 32.171875  29.60416666666667 31.526041666666664  30.125 30.828125  C 30.645833333333336 30.130208333333325  31.21875 29.484375000000004  31.84375 28.890625  C 32.46875 28.296875  32.989583333333336 28  33.40625 28  C 33.69791666666667 28  33.99479166666667 28.072916666666664  34.296875 28.21875  C 34.598958333333336 28.36458333333333  34.96875 28.588541666666664  35.40625 28.890625  C 35.84375 29.19270833333333  36.10416666666667 29.375  36.1875 29.437499999999996  C 36.708333333333336 29.75  37.265625 30.07291666666666  37.859375 30.40625  C 38.453125 30.73958333333333  39.114583333333336 31.10416666666666  39.84375 31.499999999999996  C 40.57291666666667 31.895833333333332  41.13541666666667 32.20833333333333  41.53125 32.4375  C 42.989583333333336 33.166666666666664  43.78125 33.71875  43.90625 34.09375  Z " fill-rule="nonzero" fill="#ffffff" stroke="none" transform="matrix(1 0 0 1 693 7624 )" />
  </g>
</svg>