<?xml version="1.0" encoding="utf-8"?>
<svg version="1.1" xmlns:xlink="http://www.w3.org/1999/xlink" width="44px" height="47px" xmlns="http://www.w3.org/2000/svg">
  <g transform="matrix(1 0 0 1 -693 -6675 )">
    <path d="M 43.90625 36.41832386363637  C 43.96875 36.574100378787875  44 36.80776515151514  44 37.11931818181818  C 44 37.72017045454545  43.895833333333336 38.50461647727273  43.6875 39.47265625  C 43.47916666666667 40.44069602272727  43.26041666666667 41.20288825757576  43.03125 41.75923295454545  C 42.59375 42.871922348484844  41.32291666666667 44.05137310606061  39.21875 45.29758522727273  C 37.26041666666667 46.43252840909091  35.32291666666667 47  33.40625 47  C 32.84375 47  32.29166666666667 46.96105587121212  31.75 46.88316761363637  C 31.208333333333336 46.80527935606061  30.609375000000007 46.66619318181818  29.953125 46.46590909090909  C 29.296875000000004 46.265625  28.80729166666667 46.10428503787879  28.484375 45.98188920454546  C 28.161458333333336 45.85949337121212  27.583333333333336 45.63139204545454  26.75 45.29758522727273  C 25.91666666666667 44.96377840909091  25.406250000000004 44.76349431818182  25.21875 44.69673295454546  C 23.177083333333336 43.91785037878788  21.354166666666668 42.99431818181818  19.75 41.92613636363637  C 17.104166666666668 40.16808712121212  14.354166666666666 37.76467803030303  11.5 34.71590909090909  C 8.645833333333334 31.667140151515145  6.395833333333334 28.729640151515156  4.75 25.90340909090909  C 3.7499999999999996 24.189867424242422  2.885416666666667 22.24266098484848  2.15625 20.061789772727273  C 2.09375 19.861505681818176  1.9062500000000002 19.316287878787875  1.59375 18.426136363636367  C 1.28125 17.535984848484844  1.0677083333333335 16.91844223484848  0.9531250000000001 16.573508522727273  C 0.8385416666666667 16.22857481060606  0.6875 15.705610795454543  0.5 15.004616477272727  C 0.3125 14.303622159090903  0.18229166666666669 13.663825757575754  0.109375 13.085227272727273  C 0.03645833333333333 12.506628787878784  0 11.916903409090908  0 11.316051136363635  C 0 9.268702651515149  0.53125 7.1991003787878745  1.59375 5.1072443181818175  C 2.760416666666667 2.859611742424235  3.864583333333333 1.5021306818181828  4.90625 1.0348011363636345  C 5.427083333333334 0.7900094696969661  6.140625 0.5563446969696919  7.046875 0.33380681818181723  C 7.953125 0.11126893939393734  8.6875 0  9.25 0  C 9.541666666666668 0  9.760416666666668 0.03338068181818277  9.90625 0.10014204545454308  C 10.28125 0.23366477272727415  10.833333333333334 1.0793087121212115  11.562499999999998 2.6370738636363655  C 11.791666666666668 3.0598958333333264  12.104166666666668 3.6607481060606006  12.500000000000002 4.4396306818181825  C 12.895833333333334 5.218513257575754  13.260416666666668 5.925071022727274  13.59375 6.559303977272726  C 13.927083333333334 7.1935369318181825  14.25 7.788825757575754  14.562500000000002 8.345170454545457  C 14.625 8.4341856060606  14.807291666666668 8.712357954545457  15.109375 9.1796875  C 15.411458333333336 9.647017045454543  15.63541666666667 10.04202178030303  15.78125 10.364701704545457  C 15.927083333333334 10.687381628787875  16 11.0044981060606  16 11.316051136363635  C 16 11.76112689393939  15.703125 12.317471590909092  15.109375 12.985085227272727  C 14.515625 13.652698863636365  13.869791666666668 14.26467803030303  13.171875 14.821022727272727  C 12.473958333333334 15.377367424242419  11.828125 15.967092803030303  11.234375 16.590198863636367  C 10.640625 17.213304924242422  10.34375 17.725142045454543  10.34375 18.125710227272727  C 10.34375 18.325994318181817  10.395833333333334 18.576349431818183  10.5 18.876775568181817  C 10.604166666666668 19.177201704545457  10.692708333333334 19.405303030303028  10.765625 19.561079545454543  C 10.838541666666668 19.71685606060606  10.984375 19.983901515151516  11.203125 20.36221590909091  C 11.421875 20.740530303030305  11.541666666666668 20.95194128787879  11.562499999999998 20.996448863636367  C 13.145833333333334 24.045217803030297  14.958333333333334 26.660037878787875  17 28.84090909090909  C 19.041666666666668 31.021780303030297  21.489583333333336 32.957859848484844  24.34375 34.649147727272734  C 24.385416666666664 34.67140151515151  24.583333333333332 34.79936079545455  24.9375 35.03302556818182  C 25.291666666666668 35.26669034090909  25.54166666666667 35.4224668560606  25.687500000000004 35.50035511363637  C 25.833333333333336 35.57824337121212  26.046874999999996 35.67282196969697  26.328125 35.78409090909091  C 26.609375 35.895359848484844  26.84375 35.95099431818182  27.03125 35.95099431818182  C 27.406250000000004 35.95099431818182  27.885416666666668 35.63387784090909  28.46875 34.99964488636363  C 29.052083333333332 34.36541193181818  29.60416666666667 33.67554450757576  30.125 32.93004261363637  C 30.645833333333336 32.18454071969696  31.21875 31.494673295454547  31.84375 30.86044034090909  C 32.46875 30.226207386363633  32.989583333333336 29.90909090909091  33.40625 29.90909090909091  C 33.69791666666667 29.90909090909091  33.99479166666667 29.986979166666664  34.296875 30.142755681818183  C 34.598958333333336 30.298532196969692  34.96875 30.537760416666664  35.40625 30.86044034090909  C 35.84375 31.18312026515151  36.10416666666667 31.37784090909091  36.1875 31.44460227272727  C 36.708333333333336 31.77840909090909  37.265625 32.1233428030303  37.859375 32.47940340909091  C 38.453125 32.83546401515151  39.114583333333336 33.2249053030303  39.84375 33.647727272727266  C 40.57291666666667 34.07054924242424  41.13541666666667 34.404356060606055  41.53125 34.649147727272734  C 42.989583333333336 35.4280303030303  43.78125 36.01775568181818  43.90625 36.41832386363637  Z " fill-rule="nonzero" fill="#ffffff" stroke="none" transform="matrix(1 0 0 1 693 6675 )" />
  </g>
</svg>