<?xml version="1.0" encoding="utf-8"?>
<svg version="1.1" xmlns:xlink="http://www.w3.org/1999/xlink" width="113px" height="131px" xmlns="http://www.w3.org/2000/svg">
  <g transform="matrix(1 0 0 1 -818 -1466 )">
    <path d="M 47.7822265625 76.57505580357143  C 48.10101996527778 77.7690662202381  48.21137152777778 78.51227678571429  48.11328125 78.8046875  C 48.064236111111114 78.95089285714285  47.757703993055564 78.93870907738095  47.193684895833336 78.76813616071429  C 46.629665798611114 78.5975632440476  45.857204861111114 78.31733630952381  44.876302083333336 77.92745535714285  L 43.404947916666664 77.26953125  C 41.246961805555564 76.2948288690476  39.1134982638889 75.10081845238095  37.004557291666664 73.6875  C 36.66124131944444 73.4438244047619  35.65581597222223 72.6762462797619  33.98828125 71.384765625  C 32.32074652777778 70.0932849702381  31.38888888888889 69.3988095238095  31.192708333333336 69.30133928571429  C 27.906684027777782 74.32105654761905  24.62065972222222 78.73158482142857  21.334635416666668 82.53292410714285  C 17.361979166666668 87.16276041666666  14.787109375 89.84319196428571  13.610026041666666 90.57421875  C 13.41384548611111 90.67168898809523  12.935655381944445 90.76915922619047  12.175455729166666 90.86662946428571  C 11.415256076388891 90.96409970238095  10.961588541666666 90.96409970238095  10.814453125 90.86662946428571  C 11.108723958333334 90.67168898809523  13.119574652777779 88.42987351190476  16.847005208333332 84.14118303571429  C 17.876953125 82.97154017857143  19.9736328125 80.16927083333331  23.137044270833332 75.734375  C 26.300455729166668 71.29947916666666  28.225477430555557 68.42410714285715  28.912109375 67.10825892857143  C 29.745876736111114 65.64620535714285  30.996527777777782 63.24600074404762  32.6640625 59.90764508928572  C 34.33159722222223 56.5692894345238  35.21440972222223 54.68080357142858  35.3125 54.2421875  C 34.92013888888889 54.19345238095238  32.22265625 54.99758184523808  27.220052083333332 56.654575892857146  C 26.82769097222222 56.75204613095238  26.1533203125 56.93480282738095  25.196940104166668 57.202845982142854  C 24.240559895833332 57.47088913690475  23.39453125 57.70238095238095  22.658854166666668 57.89732142857142  C 21.923177083333332 58.092261904761905  21.506293402777782 58.21409970238095  21.408203125 58.26283482142858  C 21.31011284722222 58.3603050595238  21.261067708333332 58.6161644345238  21.261067708333332 59.03041294642858  C 21.261067708333332 59.44466145833333  21.23654513888889 59.676153273809526  21.1875 59.724888392857146  C 20.942274305555557 60.21223958333333  20.182074652777782 60.577752976190474  18.906901041666668 60.82142857142858  C 17.77886284722222 61.162574404761905  16.626302083333336 61.162574404761905  15.44921875 60.82142857142858  C 14.56640625 60.62648809523808  13.879774305555555 60.11476934523808  13.389322916666666 59.28627232142858  C 13.19314236111111 58.993861607142854  13.070529513888891 58.433407738095234  13.021484375 57.60491071428572  C 13.315755208333334 57.507440476190474  13.916558159722225 57.38560267857142  14.823893229166668 57.23939732142858  C 15.731228298611112 57.09319196428572  16.45464409722222 56.946986607142854  16.994140625 56.80078125  C 19.838758680555557 56.02101934523808  22.41362847222222 55.24125744047618  24.71875 54.46149553571428  C 29.62326388888889 52.755766369047606  32.12456597222223 51.90290178571428  32.22265625 51.90290178571428  C 32.71310763888889 51.80543154761904  33.767578125 51.33026413690475  35.386067708333336 50.47739955357142  C 37.004557291666664 49.62453497023808  38.08355034722223 49.10063244047618  38.623046875 48.90569196428572  C 39.064453125 48.759486607142854  39.591688368055564 48.56454613095238  40.204752604166664 48.32087053571428  C 40.81781684027778 48.07719494047618  41.17339409722223 47.943173363095234  41.271484375 47.91880580357142  C 41.36957465277778 47.894438244047606  41.51671006944444 47.906622023809526  41.712890625 47.955357142857146  C 41.81098090277778 48.54017857142858  41.786458333333336 49.34430803571428  41.639322916666664 50.36774553571428  C 41.639322916666664 50.465215773809526  41.332790798611114 51.12313988095238  40.7197265625 52.341517857142854  C 40.1066623263889 53.55989583333333  39.456814236111114 54.863560267857146  38.770182291666664 56.25251116071428  C 38.08355034722223 57.64146205357142  37.666666666666664 58.45777529761905  37.51953125 58.701450892857146  C 36.29340277777778 61.13820684523808  34.40516493055556 64.33035714285715  31.854817708333336 68.27790178571429  L 36.563151041666664 70.32477678571429  C 37.151692708333336 70.6171875  38.97862413194444 71.3969494047619  42.0439453125 72.6640625  C 45.109266493055564 73.9311755952381  46.764539930555564 74.61346726190476  47.009765625 74.7109375  C 47.205946180555564 74.7596726190476  47.46343315972223 75.38104538690476  47.7822265625 76.57505580357143  Z M 31.486979166666664 42.03404017857142  C 32.32074652777778 42.03404017857142  32.835720486111114 42.44828869047618  33.031901041666664 43.27678571428572  C 33.179036458333336 44.0078125  33.08094618055556 44.69010416666666  32.737630208333336 45.32366071428572  C 32.149088541666664 46.44456845238095  30.922960069444446 47.37053571428572  29.059244791666664 48.1015625  C 27.587890625 48.68638392857142  26.116536458333332 48.978794642857146  24.645182291666668 48.978794642857146  C 23.370008680555557 48.83258928571428  22.168402777777782 48.199032738095234  21.040364583333332 47.078125  C 20.35373263888889 46.34709821428572  19.91232638888889 45.348028273809526  19.716145833333332 44.08091517857142  L 19.789713541666668 43.861607142857146  C 19.936848958333332 44.0078125  20.4150390625 44.12965029761904  21.224283854166668 44.22712053571428  C 22.033528645833332 44.324590773809526  22.683376736111114 44.324590773809526  23.173828125 44.22712053571428  C 23.66427951388889 44.12965029761904  25.086588541666668 43.73976934523808  27.440755208333332 43.05747767857142  C 29.206380208333336 42.47265625  30.555121527777782 42.13151041666666  31.486979166666664 42.03404017857142  Z M 78.791015625 66.23102678571429  L 84.38216145833333 52.70703125  L 89.01692708333333 69.30133928571429  L 78.791015625 66.23102678571429  Z M 3 35.8203125  L 3 111.18917410714285  L 54 94.22935267857143  L 54 18.787388392857146  L 3 35.8203125  Z M 91.44466145833333 78.14676339285715  L 94.16666666666667 88.015625  L 101.67057291666667 90.28180803571429  L 88.35481770833333 42.25334821428572  L 80.998046875 39.98716517857142  L 65.107421875 79.17020089285715  L 72.611328125 81.43638392857143  L 75.921875 73.39508928571429  L 91.44466145833333 78.14676339285715  Z M 99 3.3627232142857206  L 57.162109375 17.69084821428572  L 99 31.141741071428573  L 99 3.3627232142857206  Z M 83.205078125 119.7421875  L 80.04166666666667 114.40569196428571  L 91.66536458333333 115.35602678571428  L 87.69270833333333 127.05245535714285  L 84.75 122.22767857142857  C 78.37413194444446 126.27269345238096  71.60590277777779 128.90438988095238  64.4453125 130.12276785714286  C 61.60069444444445 130.70758928571428  59.369140625 131  57.75065104166667 131  L 51.570963541666664 131  C 47.69639756944444 131  42.80414496527778 130.04966517857142  36.894205729166664 128.14899553571428  C 30.984266493055554 126.24832589285715  26.484375 124.17708333333334  23.39453125 121.93526785714285  C 23.00217013888889 121.59412202380952  22.805989583333332 121.20424107142857  22.805989583333332 120.765625  C 22.805989583333332 120.37574404761905  22.928602430555557 120.04678199404762  23.173828125 119.77873883928572  C 23.41905381944445 119.51069568452381  23.73784722222222 119.37667410714285  24.130208333333332 119.37667410714285  C 24.32638888888889 119.37667410714285  24.76779513888889 119.55943080357143  25.454427083333332 119.92494419642857  C 26.141059027777782 120.29045758928572  26.888997395833332 120.69252232142857  27.6982421875 121.13113839285715  C 28.50748697916667 121.56975446428572  29.010199652777782 121.83779761904762  29.206380208333336 121.93526785714285  C 32.78667534722223 123.73846726190477  36.698025173611114 125.23707217261905  40.9404296875 126.43108258928572  C 45.1828342013889 127.62509300595238  49.0451388888889 128.22209821428572  52.52734375 128.22209821428572  C 57.18663194444445 128.22209821428572  61.28190104166667 127.86876860119048  64.81315104166667 127.162109375  C 68.34440104166667 126.45545014880952  72.19444444444446 125.22488839285715  76.36328125 123.47042410714285  C 77.09895833333333 123.12927827380952  77.84689670138889 122.75158110119048  78.60709635416667 122.33733258928572  C 79.36729600694446 121.92308407738095  80.20106336805556 121.46010044642857  81.1083984375 120.94838169642857  C 82.01573350694446 120.43666294642857  82.71462673611113 120.03459821428572  83.205078125 119.7421875  Z M 102 32.092075892857146  L 113 35.52790178571428  L 113 114.40569196428571  L 56.05859375 96.42243303571429  C 55.371961805555564 96.71484375  46.1759982638889 99.82170758928571  28.470703125 105.74302455357143  C 10.76540798611111 111.66434151785715  1.7411024305555556 114.625  1.3977864583333333 114.625  C 0.7601996527777777 114.625  0.3187934027777778 114.3082217261905  0.07356770833333333 113.67466517857143  C 0.07356770833333333 113.62593005952381  0.049045138888888895 113.55282738095238  0 113.45535714285715  L 0 34.650669642857146  C 0.14713541666666666 34.21205357142858  0.24522569444444442 33.96837797619046  0.2942708333333333 33.919642857142854  C 0.5394965277777778 33.627232142857146  1.0299479166666667 33.359188988095234  1.765625 33.115513392857146  C 7.0134548611111125 31.361049107142854  10.667317708333334 30.142671130952376  13 29.46037946428572  L 13 1.388950892857147  L 53.777994791666664 15.86328125  C 53.87608506944444 15.86328125  57.81195746527778 14.52306547619046  65.58561197916667 11.842633928571427  C 73.35926649305556 9.162202380952378  81.1083984375 6.518322172619034  88.8330078125 3.9109933035714266  C 96.5576171875 1.3036644345238186  100.5180121527778 0  100.71419270833333 0  C 101.69509548611113 0  102.185546875 0.51171875  102 1.53515625  L 102 32.092075892857146  Z " fill-rule="nonzero" fill="#000000" stroke="none" transform="matrix(1 0 0 1 818 1466 )" />
  </g>
</svg>