<?xml version="1.0" encoding="utf-8"?>
<svg version="1.1" xmlns:xlink="http://www.w3.org/1999/xlink" width="136px" height="131px" xmlns="http://www.w3.org/2000/svg">
  <g transform="matrix(1 0 0 1 -147 -1466 )">
    <path d="M 131.42307692307693 46.96849401386264  C 134.47435897435898 47.46376811594204  136 48.729468599033815  136 50.765595463138  C 136 51.976265490443176  135.29166666666669 53.29699642932156  133.875 54.72778827977316  L 104.20673076923077 83.94896030245746  L 111.23557692307692 125.22180214240706  C 111.29006410256412 125.60701533291326  111.3173076923077 126.15731989077923  111.3173076923077 126.87271581600504  C 111.3173076923077 128.02835538752362  111.03125 129.00514597773576  110.45913461538463 129.80308758664145  C 109.88701923076923 130.60102919554717  109.05608974358975 131  107.96634615384615 131  C 106.93108974358975 131  105.84134615384615 130.66981726528041  104.69711538461537 130.00945179584122  L 68 110.52867044738501  L 31.302884615384613 130.00945179584122  C 30.104166666666668 130.66981726528041  29.014423076923077 131  28.033653846153843 131  C 26.889423076923077 131  26.03125 130.60102919554717  25.459134615384613 129.80308758664145  C 24.88701923076923 129.00514597773576  24.600961538461537 128.02835538752362  24.600961538461537 126.87271581600504  C 24.600961538461537 126.54253308128544  24.655448717948723 125.99222852341944  24.764423076923077 125.22180214240706  L 31.79326923076923 83.94896030245746  L 2.043269230769231 54.72778827977316  C 0.6810897435897435 53.241965973534974  0 51.92123503465659  0 50.765595463138  C 0 48.729468599033815  1.5256410256410253 47.46376811594204  4.576923076923077 46.96849401386264  L 45.605769230769226 40.942659105229986  L 63.995192307692314 3.38437303087586  C 65.03044871794873 1.1281243436252817  66.36538461538461 0  68 0  C 69.63461538461537 0  70.96955128205128 1.1281243436252817  72.0048076923077 3.38437303087586  L 90.39423076923077 40.942659105229986  L 131.42307692307693 46.96849401386264  Z " fill-rule="nonzero" fill="#000000" stroke="none" transform="matrix(1 0 0 1 147 1466 )" />
  </g>
</svg>