<?xml version="1.0" encoding="utf-8"?>
<svg version="1.1" xmlns:xlink="http://www.w3.org/1999/xlink" width="86px" height="86px" xmlns="http://www.w3.org/2000/svg">
  <g transform="matrix(1 0 0 1 -1230 -7779 )">
    <path d="M 62.20442708333333 39.92057291666667  C 62.76432291666667 40.51779513888889  62.89496527777779 41.17100694444444  62.59635416666667 41.88020833333333  C 62.29774305555556 42.62673611111111  61.73784722222223 43  60.91666666666667 43  L 50 43  L 50 62.70833333333334  C 50.16666666666667 63.23090277777778  49.99869791666667 63.66015625  49.66276041666667 63.99609375  C 49.32682291666667 64.33203125  48.89756944444445 64.5  48.375 64  L 37.625 64  C 37.10243055555556 64.5  36.673177083333336 64.33203125  36.337239583333336 63.99609375  C 36.001302083333336 63.66015625  35.833333333333336 63.23090277777778  36 62.70833333333334  L 36 43  L 25.083333333333336 43  C 24.56076388888889 43  24.131510416666664 42.83203125  23.795572916666664 42.49609375  C 23.459635416666664 42.16015625  23.291666666666664 41.73090277777777  23.291666666666664 41.20833333333333  C 23.291666666666664 40.76041666666667  23.478298611111114 40.3125  23.8515625 39.86458333333333  L 41.712239583333336 22.00390625  C 42.122829861111114 21.66796875  42.552083333333336 21.5  43 21.5  C 43.44791666666667 21.5  43.87717013888889 21.66796875  44.28776041666667 22.00390625  L 62.20442708333333 39.92057291666667  Z M 58.28515625 16.62890625  C 53.61935763888889 13.90407986111111  48.52430555555556 12.54166666666667  43 12.54166666666667  C 37.47569444444444 12.54166666666667  32.380642361111114 13.90407986111111  27.71484375 16.62890625  C 23.04904513888889 19.35373263888888  19.35373263888889 23.04904513888888  16.62890625 27.71484375  C 13.904079861111112 32.38064236111111  12.541666666666668 37.47569444444444  12.541666666666668 43  C 12.541666666666668 48.52430555555556  13.904079861111112 53.61935763888888  16.62890625 58.28515625  C 19.35373263888889 62.9509548611111  23.04904513888889 66.64626736111111  27.71484375 69.37109375  C 32.380642361111114 72.09592013888889  37.47569444444444 73.45833333333333  43 73.45833333333333  C 48.52430555555556 73.45833333333333  53.61935763888889 72.09592013888889  58.28515625 69.37109375  C 62.95095486111112 66.64626736111111  66.64626736111111 62.9509548611111  69.37109375 58.28515625  C 72.09592013888889 53.61935763888888  73.45833333333333 48.52430555555556  73.45833333333333 43  C 73.45833333333333 37.47569444444444  72.09592013888889 32.38064236111111  69.37109375 27.71484375  C 66.64626736111111 23.04904513888888  62.95095486111112 19.35373263888888  58.28515625 16.62890625  Z M 80.23307291666667 21.416015625  C 84.07769097222221 28.00412326388888  86 35.19878472222221  86 43  C 86 50.80121527777778  84.07769097222221 57.9958767361111  80.23307291666667 64.583984375  C 76.38845486111111 71.17209201388889  71.17209201388889 76.38845486111111  64.583984375 80.23307291666667  C 57.99587673611112 84.07769097222223  50.80121527777778 86  43 86  C 35.19878472222222 86  28.00412326388889 84.07769097222223  21.416015625 80.23307291666667  C 14.827907986111112 76.38845486111111  9.61154513888889 71.17209201388889  5.766927083333334 64.583984375  C 1.9223090277777775 57.9958767361111  0 50.80121527777778  0 43  C 0 35.19878472222221  1.9223090277777775 28.00412326388888  5.766927083333334 21.416015625  C 9.61154513888889 14.82790798611111  14.827907986111112 9.61154513888888  21.416015625 5.76692708333333  C 28.00412326388889 1.9223090277777704  35.19878472222222 0  43 0  C 50.80121527777778 0  57.99587673611112 1.9223090277777704  64.583984375 5.76692708333333  C 71.17209201388889 9.61154513888888  76.38845486111111 14.82790798611111  80.23307291666667 21.416015625  Z " fill-rule="nonzero" fill="#ffffff" stroke="none" transform="matrix(1 0 0 1 1230 7779 )" />
  </g>
</svg>