<?xml version="1.0" encoding="utf-8"?>
<svg version="1.1" xmlns:xlink="http://www.w3.org/1999/xlink" width="86px" height="92px" xmlns="http://www.w3.org/2000/svg">
  <g transform="matrix(1 0 0 1 -1230 -6858 )">
    <path d="M 62.20442708333333 42.70572916666667  C 62.76432291666667 43.34461805555556  62.89496527777779 44.04340277777777  62.59635416666667 44.80208333333333  C 62.29774305555556 45.60069444444444  61.73784722222223 46  60.91666666666667 46  L 50 46  L 50 67.08333333333334  C 50.16666666666667 67.64236111111111  49.99869791666667 68.1015625  49.66276041666667 68.4609375  C 49.32682291666667 68.8203125  48.89756944444445 69  48.375 69  L 37.625 69  C 37.10243055555556 69  36.673177083333336 68.8203125  36.337239583333336 68.4609375  C 36.001302083333336 68.1015625  35.833333333333336 67.64236111111111  36 67.08333333333334  L 36 46  L 25.083333333333336 46  C 24.56076388888889 46  24.131510416666664 45.8203125  23.795572916666664 45.4609375  C 23.459635416666664 45.1015625  23.291666666666664 44.6423611111111  23.291666666666664 44.08333333333333  C 23.291666666666664 43.60416666666667  23.478298611111114 43.125  23.8515625 42.64583333333333  L 41.712239583333336 23.5390625  C 42.122829861111114 23.1796875  42.552083333333336 23  43 23  C 43.44791666666667 23  43.87717013888889 23.1796875  44.28776041666667 23.5390625  L 62.20442708333333 42.70572916666667  Z M 58.28515625 17.7890625  C 53.61935763888889 14.874131944444443  48.52430555555556 13.41666666666667  43 13.41666666666667  C 37.47569444444444 13.41666666666667  32.380642361111114 14.874131944444443  27.71484375 17.7890625  C 23.04904513888889 20.703993055555546  19.35373263888889 24.657118055555546  16.62890625 29.6484375  C 13.904079861111112 34.63975694444444  12.541666666666668 40.09027777777777  12.541666666666668 46  C 12.541666666666668 51.90972222222223  13.904079861111112 57.36024305555554  16.62890625 62.3515625  C 19.35373263888889 67.34288194444443  23.04904513888889 71.29600694444444  27.71484375 74.2109375  C 32.380642361111114 77.12586805555556  37.47569444444444 78.58333333333333  43 78.58333333333333  C 48.52430555555556 78.58333333333333  53.61935763888889 77.12586805555556  58.28515625 74.2109375  C 62.95095486111112 71.29600694444444  66.64626736111111 67.34288194444443  69.37109375 62.3515625  C 72.09592013888889 57.36024305555554  73.45833333333333 51.90972222222223  73.45833333333333 46  C 73.45833333333333 40.09027777777777  72.09592013888889 34.63975694444444  69.37109375 29.6484375  C 66.64626736111111 24.657118055555546  62.95095486111112 20.703993055555546  58.28515625 17.7890625  Z M 80.23307291666667 22.91015625  C 84.07769097222221 29.957899305555546  86 37.65451388888888  86 46  C 86 54.345486111111114  84.07769097222221 62.042100694444436  80.23307291666667 69.08984375  C 76.38845486111111 76.13758680555556  71.17209201388889 81.71788194444444  64.583984375 85.83072916666667  C 57.99587673611112 89.9435763888889  50.80121527777778 92  43 92  C 35.19878472222222 92  28.00412326388889 89.9435763888889  21.416015625 85.83072916666667  C 14.827907986111112 81.71788194444444  9.61154513888889 76.13758680555556  5.766927083333334 69.08984375  C 1.9223090277777775 62.042100694444436  0 54.345486111111114  0 46  C 0 37.65451388888888  1.9223090277777775 29.957899305555546  5.766927083333334 22.91015625  C 9.61154513888889 15.862413194444443  14.827907986111112 10.282118055555546  21.416015625 6.16927083333333  C 28.00412326388889 2.056423611111103  35.19878472222222 0  43 0  C 50.80121527777778 0  57.99587673611112 2.056423611111103  64.583984375 6.16927083333333  C 71.17209201388889 10.282118055555546  76.38845486111111 15.862413194444443  80.23307291666667 22.91015625  Z " fill-rule="nonzero" fill="#ffffff" stroke="none" transform="matrix(1 0 0 1 1230 6858 )" />
  </g>
</svg>